<?xml version="1.0" encoding="UTF-8" standalone="no"?>
<svg
   xmlns:dc="http://purl.org/dc/elements/1.1/"
   xmlns:cc="http://creativecommons.org/ns#"
   xmlns:rdf="http://www.w3.org/1999/02/22-rdf-syntax-ns#"
   xmlns:svg="http://www.w3.org/2000/svg"
   xmlns="http://www.w3.org/2000/svg"
   xmlns:sodipodi="http://sodipodi.sourceforge.net/DTD/sodipodi-0.dtd"
   xmlns:inkscape="http://www.inkscape.org/namespaces/inkscape"
   sodipodi:docname="logo.svg"
   inkscape:version="1.0 (4035a4fb49, 2020-05-01)"
   id="svg8"
   version="1.1"
   viewBox="0 0 210 297"
   height="297mm"
   width="210mm">
  <defs
     id="defs2" />
  <sodipodi:namedview
     inkscape:window-maximized="0"
     inkscape:window-y="38"
     inkscape:window-x="3870"
     inkscape:window-height="1870"
     inkscape:window-width="3678"
     showgrid="false"
     inkscape:document-rotation="0"
     inkscape:current-layer="layer2"
     inkscape:document-units="mm"
     inkscape:cy="383.70243"
     inkscape:cx="434.07814"
     inkscape:zoom="3.959798"
     inkscape:pageshadow="2"
     inkscape:pageopacity="0.0"
     borderopacity="1.0"
     bordercolor="#666666"
     pagecolor="#ffffff"
     id="base" />
  <metadata
     id="metadata5">
    <rdf:RDF>
      <cc:Work
         rdf:about="">
        <dc:format>image/svg+xml</dc:format>
        <dc:type
           rdf:resource="http://purl.org/dc/dcmitype/StillImage" />
        <dc:title></dc:title>
      </cc:Work>
    </rdf:RDF>
  </metadata>
  <g
     id="layer1"
     inkscape:groupmode="layer"
     inkscape:label="Layer 1">
    <path
       transform="scale(0.26458333)"
       id="path43"
       d="m 374.07559,345.91434 c -2.28728,-0.68382 -3.32392,-1.2583 -5.06528,-2.8071 -0.77953,-0.69333 -1.07931,-1.29695 -1.92697,-3.88006 l -1.00382,-3.059 1.8586,-6.70818 c 1.84154,-6.64659 1.8787,-6.74488 4.04667,-10.70433 1.20343,-2.19788 4.10467,-6.8372 6.44718,-10.3096 l 4.25913,-6.31345 4.18465,-3.43833 4.18466,-3.43833 4.58881,-0.18709 4.58881,-0.18709 2.20863,2.34276 c 1.21474,1.28853 2.29435,2.25857 2.39911,2.15565 0.10477,-0.10291 0.48255,-1.05989 0.83952,-2.12661 l 0.64903,-1.93949 5.66442,-1.44053 c 3.11543,-0.79229 5.9217,-1.50512 6.23615,-1.58406 0.48853,-0.12264 -0.10299,1.20779 -4.06498,9.14294 -2.55018,5.10756 -5.84739,11.84821 -7.32712,14.97923 l -2.69042,5.69276 v 4.32281 4.32281 l 1.92789,0.6482 1.92788,0.64819 3.31487,-2.64158 3.31486,-2.64158 2.43822,-4.2357 c 1.74588,-3.03298 4.45212,-8.66728 9.53073,-19.84269 3.90088,-8.58384 7.09252,-15.68639 7.09252,-15.78344 0,-0.0971 -0.99437,-0.1005 -2.20971,-0.008 -1.21534,0.0928 -2.79808,0.1787 -3.51721,0.1908 l -1.3075,0.022 0.94897,-2.84106 0.94897,-2.84105 4.52541,-0.64698 4.52541,-0.64697 2.8974,-6.95434 2.8974,-6.95434 6.13458,-1.08647 c 3.37401,-0.59756 6.17365,-1.0408 6.22143,-0.98498 0.0478,0.0558 -1.21373,2.80967 -2.80333,6.11968 -1.5896,3.31001 -2.8242,6.08419 -2.74355,6.16484 0.0807,0.0806 3.10783,-0.50977 6.72707,-1.31206 3.61924,-0.80228 6.64156,-1.39756 6.71628,-1.32285 0.11172,0.11172 -0.88224,5.42768 -1.0624,5.68203 -0.0303,0.0428 -3.48401,1.02174 -7.67485,2.17539 -4.19083,1.15364 -7.72015,2.1982 -7.84293,2.32125 -0.12277,0.12304 -3.06219,6.70132 -6.53202,14.61839 l -6.3088,14.39468 -1.692,6.26929 -1.69199,6.26929 0.96786,0.99118 c 0.53232,0.54515 1.05797,0.99118 1.16811,0.99118 0.11014,0 1.85078,-1.22165 3.86809,-2.71479 l 3.66784,-2.71478 9.07153,-12.13756 9.07153,-12.13756 3.53035,-8.02443 c 1.9417,-4.41343 3.56846,-8.06252 3.61502,-8.10908 0.0466,-0.0466 1.90225,0.35952 4.12376,0.90241 2.22151,0.54289 4.28681,1.04565 4.58955,1.11723 l 0.55044,0.13016 -0.6331,2.33563 c -0.3482,1.2846 -1.08308,3.90389 -1.63306,5.82066 l -0.99996,3.48503 1.54285,4.21738 1.54286,4.21738 0.3788,5.93465 c 0.20834,3.26405 0.45581,6.1218 0.54992,6.35054 0.12304,0.29905 1.23527,-1.23263 3.95919,-5.45235 l 3.78807,-5.86824 6.55617,-14.6418 6.55616,-14.6418 6.29467,-1.56856 c 3.46206,-0.86272 6.32184,-1.53675 6.35505,-1.49787 0.0332,0.0389 -1.52243,3.42315 -3.45699,7.52058 -1.93457,4.09743 -5.50849,12.02747 -7.94205,17.62232 l -4.42466,10.17244 0.60668,1.82312 0.60667,1.82312 2.00029,0.14772 2.0003,0.14772 2.2319,-1.91549 c 2.22955,-1.91347 2.2365,-1.92319 6.60156,-9.23909 l 4.36967,-7.32361 4.1313,-11.26931 4.13131,-11.26931 4.67195,-1.27185 c 2.56958,-0.69952 4.70956,-1.23495 4.75553,-1.18985 0.046,0.0451 -1.27936,3.75671 -2.94516,8.24802 -1.6658,4.4913 -4.3574,12.31635 -5.98134,17.38899 l -2.95262,9.22299 0.72074,1.18407 c 0.61171,1.00493 0.96908,1.28486 2.36224,1.85031 l 1.6415,0.66623 2.77792,-2.94908 c 2.59739,-2.75743 3.11726,-3.50168 7.99956,-11.4521 l 5.22163,-8.50302 3.6172,-9.74237 3.6172,-9.74236 5.27485,-1.31359 c 2.90117,-0.72247 5.30617,-1.28184 5.34444,-1.24304 0.0383,0.0388 -0.94412,3.70709 -2.18311,8.15176 -1.23899,4.44467 -2.22346,8.23894 -2.18772,8.4317 0.038,0.20514 2.21776,-1.50246 5.25627,-4.11777 l 5.19127,-4.46825 3.49806,-5.62605 3.49805,-5.62606 4.76365,-0.83641 c 2.62,-0.46003 4.82453,-0.77552 4.89895,-0.7011 0.0744,0.0744 -2.1327,6.14241 -4.90472,13.48442 l -5.04004,13.34912 -0.39897,4.28352 -0.39897,4.28351 1.06613,2.08207 c 1.04544,2.04166 1.10563,2.10424 3.10091,3.22421 l 2.03477,1.14213 3.24411,-1.068 3.2441,-1.06799 3.22939,-4.83102 c 3.22153,-4.81924 3.2327,-4.84108 4.5864,-8.9651 l 1.357,-4.13409 3.10726,-0.20377 c 1.70899,-0.11208 3.1585,-0.15254 3.22112,-0.0899 0.0626,0.0626 -1.16735,2.88173 -2.73327,6.26468 l -2.84713,6.15083 -4.49529,5.35553 c -3.54876,4.22787 -4.66737,5.40262 -5.31254,5.57917 -0.44948,0.12301 -3.20373,0.83104 -6.12055,1.57342 l -5.3033,1.34977 -4.0562,-1.30209 -4.0562,-1.30209 -1.92775,-2.50969 -1.92776,-2.5097 0.48566,-7.28404 c 0.2671,-4.00622 0.48817,-7.851 0.49125,-8.54395 l 0.006,-1.2599 -4.29902,4.29036 -4.29903,4.29036 -2.03516,3.74504 c -1.11934,2.05977 -3.49934,6.7058 -5.28889,10.32449 -1.78956,3.6187 -3.28832,6.61404 -3.33058,6.6563 -0.0896,0.0896 -9.71469,1.6238 -10.18722,1.6238 -0.17513,0 -0.56659,-0.74577 -0.86992,-1.65726 -0.49611,-1.49082 -0.59329,-1.62207 -0.96761,-1.3069 -0.22885,0.1927 -2.17756,1.82879 -4.33044,3.63576 l -3.91434,3.2854 -1.89066,0.25364 c -1.61525,0.2167 -2.2613,0.17564 -4.43495,-0.28187 -2.4499,-0.51566 -2.61665,-0.59466 -4.49485,-2.1294 -1.70955,-1.39691 -2.00408,-1.55254 -2.38359,-1.25948 -0.23816,0.18391 -2.63321,2.15423 -5.32234,4.37849 l -4.88934,4.0441 -3.40349,-0.0879 c -3.26359,-0.0842 -3.50063,-0.12737 -5.76621,-1.0492 l -2.3627,-0.96136 -3.72548,2.97945 -3.72547,2.97945 -2.50511,-1.89713 -2.50511,-1.89714 -1.41234,0.16599 c -2.51342,0.2954 -2.56945,0.32812 -2.57332,1.50242 -0.006,1.81644 -0.18694,2.06392 -2.76308,3.77912 -2.06034,1.37179 -3.0083,1.81269 -5.75035,2.67454 -1.80582,0.56759 -3.49774,1.03244 -3.75981,1.03302 -0.26207,5e-4 -1.82678,-0.29878 -3.47714,-0.66522 -2.95139,-0.65533 -3.03788,-0.69473 -5.26882,-2.40016 -1.24749,-0.95364 -2.34051,-1.72763 -2.42892,-1.71998 -0.0884,0.008 -0.76667,0.8077 -1.50725,1.77789 -1.15896,1.51831 -1.91895,2.14664 -5.45673,4.51143 -4.2627,2.84935 -8.80271,5.31246 -9.79657,5.31497 -0.31503,7.6e-4 -1.80589,-0.18718 -3.313,-0.41774 l -2.7402,-0.41919 -3.05775,-2.25253 -3.05775,-2.25252 -2.78835,2.83382 c -1.76584,1.79464 -3.76071,3.50267 -5.43999,4.65777 -2.60428,1.79136 -2.70578,1.83495 -5.68211,2.44007 -2.12478,0.43199 -3.58037,0.58644 -4.87051,0.5168 l -1.84006,-0.0993 -2.23352,-2.12549 c -1.22845,-1.16902 -2.33234,-2.11697 -2.4531,-2.10657 -0.12076,0.0104 -1.24234,1.28279 -2.4924,2.82752 -1.92173,2.3747 -2.67982,3.08804 -4.90725,4.61762 -2.45212,1.68386 -2.76252,1.82528 -4.48595,2.04379 -1.67598,0.21249 -2.06877,0.16981 -4.14234,-0.45012 z m 12.02306,-12.21906 3.79082,-3.39484 5.11107,-8.69396 5.11108,-8.69396 0.91418,-4.4582 0.91419,-4.45821 -0.81378,-2.10492 c -0.89664,-2.31927 -1.0268,-2.41022 -3.44901,-2.41022 -1.06578,0 -1.23251,0.11495 -4.30357,2.96732 -2.79376,2.59481 -3.50093,3.42859 -5.63315,6.64166 -1.34108,2.02089 -3.69859,6.11201 -5.23891,9.09138 -2.45214,4.74304 -2.9772,5.99155 -4.22004,10.03461 l -1.41944,4.61758 0.52693,1.82214 c 0.28982,1.00218 0.57399,1.9642 0.63151,2.13782 0.0728,0.21977 0.73988,0.31278 2.19593,0.30615 l 2.09137,-0.01 z m 74.55517,-11.67134 3.34218,-2.94678 1.04719,-3.14233 1.04718,-3.14232 -0.4127,-3.48826 c -0.41,-3.46544 -0.42219,-3.50561 -1.86398,-6.14353 -0.7982,-1.4604 -1.53481,-2.63009 -1.63691,-2.59931 -0.29154,0.0879 -11.05231,14.88703 -11.05231,15.20008 0,0.15384 0.56821,0.83938 1.26269,1.52341 0.69448,0.68404 1.2621,1.3048 1.26139,1.37947 -7.6e-4,0.0747 -0.62517,0.53351 -1.38766,1.01965 -0.76249,0.48613 -1.38694,1.00634 -1.38766,1.15601 -7.6e-4,0.14968 0.26591,0.94517 0.59251,1.76777 0.32659,0.8226 0.66395,1.69451 0.74969,1.93758 0.13437,0.38096 0.4967,0.44079 2.62605,0.43363 l 2.47017,-0.008 3.34217,-2.94678 z"
       style="fill:#ffffff;stroke:none;stroke-width:0.252538;fill-opacity:1" />
  </g>
  <g
     inkscape:label="Layer 2"
     id="layer2"
     inkscape:groupmode="layer">
    <path
       transform="scale(0.26458333)"
       id="path880"
       d="m 262.35221,517.32104 c -7.19467,-1.80685 -7.37918,-1.86937 -10.48033,-3.55114 -1.7362,-0.94155 -3.20228,-1.75341 -3.25794,-1.80412 -0.0557,-0.0507 0.56936,-0.96321 1.38896,-2.02777 0.81959,-1.06455 1.54906,-2.02481 1.62104,-2.13391 0.072,-0.1091 2.96985,0.77213 6.43972,1.95828 l 6.30886,2.15664 6.06091,0.83107 c 3.3335,0.45709 6.1389,0.75757 6.23422,0.66774 0.0953,-0.0898 5.08184,-10.33431 11.08116,-22.7655 l 10.90786,-22.60216 12.64335,-22.03395 c 6.95384,-12.11867 12.76332,-22.03656 12.90996,-22.03974 0.44474,-0.01 10.21056,3.63923 10.12936,3.78472 -0.0416,0.0745 -5.05531,8.82264 -11.14165,19.44037 l -11.06609,19.30497 -10.30562,22.79641 c -5.66809,12.53802 -10.30561,22.92642 -10.30561,23.08532 0,0.17165 0.17938,0.21983 0.44194,0.11871 0.24306,-0.0936 6.23769,-2.17225 13.32138,-4.61918 l 12.87945,-4.44896 11.36229,-8.1615 11.36229,-8.1615 8.87456,-10.01918 8.87456,-10.01918 4.05553,-7.73373 4.05554,-7.73373 2.56857,-9.96267 2.56857,-9.96267 -0.67387,-4.76498 -0.67388,-4.76498 -1.55092,-2.70962 -1.55093,-2.70962 -3.36901,-2.07761 -3.36901,-2.07761 -4.7259,-0.73491 c -2.59924,-0.4042 -5.12364,-0.73488 -5.60978,-0.73485 -0.48613,3e-5 -4.52043,0.66806 -8.9651,1.48452 l -8.08122,1.48446 -7.70895,2.78011 -7.70896,2.78012 -8.07468,4.62226 c -5.18031,2.96542 -9.02517,5.35424 -10.72633,6.66433 l -2.65165,2.04206 -0.073,1.90292 -0.073,1.90292 1.22991,1.15043 c 1.10045,1.02935 1.39594,1.16971 2.80728,1.33351 0.86755,0.10069 1.84116,0.25613 2.16359,0.34542 l 0.58621,0.16234 -1.09371,2.33598 -1.09372,2.33598 -0.96412,-0.007 c -1.56512,-0.0122 -7.81215,-0.66623 -10.86569,-1.13761 l -2.8305,-0.43695 -1.94781,-2.13972 -1.94781,-2.13973 1.86362,-3.75389 1.86362,-3.7539 6.9553,-4.97984 6.9553,-4.97984 9.21764,-3.75394 9.21765,-3.75394 11.49048,-2.86317 11.49049,-2.86317 7.71218,-0.17916 7.71219,-0.17915 5.29353,1.71477 5.29353,1.71476 4.30378,3.2269 4.30378,3.2269 2.3391,7.67297 2.3391,7.67298 -0.75176,8.43463 -0.75176,8.43463 -3.22653,7.95495 -3.22652,7.95495 -6.04913,9.09137 -6.04913,9.09138 -5.0755,5.31778 -5.07549,5.31777 -9.73055,6.33846 -9.73055,6.33845 -9.08354,3.78296 -9.08354,3.78296 -8.08122,1.40818 c -4.44467,0.77449 -11.05374,1.81022 -14.68682,2.30161 -6.253,0.84575 -6.97417,0.89266 -13.51079,0.87899 l -6.90519,-0.0144 z"
       style="fill:#ececec;fill-opacity:1;stroke-width:0.252538" />
    <path
       transform="scale(0.26458333)"
       id="path884"
       d="m 387.46012,486.57808 c -2.28729,-0.68381 -3.32393,-1.2583 -5.06529,-2.8071 -0.77953,-0.69332 -1.07931,-1.29695 -1.92697,-3.88006 l -1.00382,-3.05899 1.8586,-6.70819 c 1.84154,-6.64658 1.8787,-6.74487 4.04667,-10.70433 1.20344,-2.19788 4.10467,-6.8372 6.44719,-10.3096 l 4.25912,-6.31345 4.18466,-3.43833 4.18465,-3.43833 4.58881,-0.18709 4.58881,-0.18709 2.20863,2.34276 c 1.21475,1.28853 2.29435,2.25857 2.39911,2.15565 0.10477,-0.10291 0.48255,-1.05989 0.83952,-2.12661 l 0.64903,-1.93949 5.66442,-1.44053 c 3.11543,-0.79229 5.9217,-1.50511 6.23615,-1.58406 0.48853,-0.12264 -0.10299,1.20779 -4.06498,9.14295 -2.55018,5.10755 -5.84739,11.84821 -7.32712,14.97922 l -2.69041,5.69276 v 4.32281 4.32282 l 1.92788,0.64819 1.92788,0.64819 3.31487,-2.64157 3.31486,-2.64158 2.43822,-4.23571 c 1.74588,-3.03298 4.45212,-8.66728 9.53073,-19.84269 3.90088,-8.58384 7.09252,-15.68639 7.09252,-15.78344 0,-0.097 -0.99437,-0.10049 -2.20971,-0.008 -1.21534,0.0928 -2.79808,0.17871 -3.51721,0.1908 l -1.30749,0.022 0.94897,-2.84106 0.94896,-2.84105 4.52541,-0.64697 4.52541,-0.64698 2.8974,-6.95434 2.8974,-6.95434 6.13458,-1.08647 c 3.37401,-0.59756 6.17366,-1.0408 6.22143,-0.98498 0.0478,0.0558 -1.21373,2.80968 -2.80333,6.11969 -1.5896,3.31 -2.8242,6.08418 -2.74355,6.16483 0.0806,0.0807 3.10783,-0.50977 6.72707,-1.31205 3.61924,-0.80229 6.64157,-1.39757 6.71628,-1.32286 0.11172,0.11172 -0.88224,5.42769 -1.0624,5.68203 -0.0303,0.0428 -3.48401,1.02175 -7.67484,2.17539 -4.19084,1.15364 -7.72016,2.1982 -7.84293,2.32125 -0.12278,0.12305 -3.0622,6.70132 -6.53203,14.61839 l -6.3088,14.39468 -1.692,6.26929 -1.69199,6.26929 0.96786,0.99118 c 0.53232,0.54515 1.05797,0.99118 1.16811,0.99118 0.11014,0 1.85078,-1.22165 3.86809,-2.71478 l 3.66784,-2.71479 9.07153,-12.13756 9.07153,-12.13756 3.53035,-8.02443 c 1.9417,-4.41343 3.56846,-8.06252 3.61502,-8.10908 0.0466,-0.0466 1.90226,0.35952 4.12376,0.90241 2.22151,0.54289 4.28681,1.04565 4.58955,1.11724 l 0.55044,0.13016 -0.6331,2.33562 c -0.3482,1.2846 -1.08308,3.90389 -1.63306,5.82066 l -0.99996,3.48503 1.54285,4.21738 1.54286,4.21739 0.3788,5.93464 c 0.20834,3.26406 0.45581,6.1218 0.54992,6.35054 0.12304,0.29906 1.23527,-1.23263 3.95919,-5.45235 l 3.78807,-5.86824 6.55617,-14.6418 6.55616,-14.6418 6.29467,-1.56856 c 3.46206,-0.86271 6.32184,-1.53675 6.35506,-1.49787 0.0332,0.0389 -1.52244,3.42315 -3.457,7.52058 -1.93457,4.09743 -5.50849,12.02748 -7.94205,17.62232 l -4.42466,10.17244 0.60668,1.82312 0.60667,1.82312 2.0003,0.14772 2.00029,0.14772 2.2319,-1.91549 c 2.22955,-1.91347 2.2365,-1.92319 6.60157,-9.23909 l 4.36966,-7.32361 4.1313,-11.2693 4.13131,-11.26931 4.67195,-1.27186 c 2.56958,-0.69952 4.70957,-1.23495 4.75553,-1.18985 0.046,0.0451 -1.27936,3.75671 -2.94516,8.24802 -1.6658,4.4913 -4.3574,12.31635 -5.98134,17.38899 l -2.95262,9.22299 0.72074,1.18407 c 0.61171,1.00494 0.96908,1.28486 2.36224,1.85031 l 1.6415,0.66624 2.77792,-2.94909 c 2.59739,-2.75743 3.11726,-3.50168 7.99956,-11.4521 l 5.22163,-8.50302 3.6172,-9.74236 3.6172,-9.74237 5.27485,-1.31358 c 2.90117,-0.72248 5.30617,-1.28184 5.34445,-1.24305 0.0383,0.0388 -0.94413,3.70709 -2.18312,8.15176 -1.23899,4.44468 -2.22346,8.23894 -2.18772,8.4317 0.038,0.20514 2.21777,-1.50246 5.25627,-4.11777 l 5.19127,-4.46825 3.49806,-5.62605 3.49806,-5.62606 4.76364,-0.83641 c 2.62,-0.46003 4.82453,-0.77552 4.89895,-0.7011 0.0744,0.0744 -2.1327,6.14241 -4.90472,13.48443 l -5.04004,13.34911 -0.39897,4.28352 -0.39897,4.28352 1.06613,2.08207 c 1.04544,2.04165 1.10563,2.10423 3.10091,3.2242 l 2.03477,1.14213 3.24411,-1.068 3.2441,-1.06799 3.22939,-4.83101 c 3.22153,-4.81925 3.2327,-4.84108 4.5864,-8.96511 l 1.357,-4.13409 3.10726,-0.20377 c 1.709,-0.11207 3.1585,-0.15253 3.22112,-0.0899 0.0626,0.0626 -1.16735,2.88173 -2.73327,6.26468 l -2.84713,6.15083 -4.49529,5.35553 c -3.54876,4.22787 -4.66737,5.40262 -5.31254,5.57917 -0.44948,0.12301 -3.20373,0.83104 -6.12055,1.57342 l -5.3033,1.34977 -4.0562,-1.30209 -4.0562,-1.30208 -1.92775,-2.5097 -1.92776,-2.5097 0.48566,-7.28404 c 0.26711,-4.00622 0.48817,-7.851 0.49125,-8.54394 l 0.006,-1.25991 -4.29902,4.29036 -4.29903,4.29037 -2.03516,3.74504 c -1.11934,2.05977 -3.49934,6.70579 -5.28889,10.32449 -1.78956,3.6187 -3.28832,6.61403 -3.33058,6.65629 -0.0896,0.0896 -9.71468,1.6238 -10.18722,1.6238 -0.17513,0 -0.56659,-0.74576 -0.86992,-1.65726 -0.49611,-1.49082 -0.59328,-1.62207 -0.9676,-1.30689 -0.22886,0.19269 -2.17794,1.83084 -4.33129,3.64031 l -3.91518,3.28996 -1.92709,0.237 c -1.61169,0.1982 -2.33688,0.15175 -4.43096,-0.28387 -2.4083,-0.50098 -2.57843,-0.58179 -4.45758,-2.1173 -1.71235,-1.39921 -2.00722,-1.55513 -2.38674,-1.26206 -0.23815,0.18391 -2.63321,2.15423 -5.32234,4.37849 l -4.88934,4.04411 -3.40349,-0.0879 c -3.26359,-0.0842 -3.50063,-0.12737 -5.76621,-1.0492 l -2.3627,-0.96135 -3.72548,2.97945 -3.72547,2.97945 -2.50511,-1.89714 -2.50511,-1.89714 -1.41234,0.16599 c -2.51342,0.2954 -2.56945,0.32812 -2.57332,1.50243 -0.006,1.81643 -0.18694,2.06391 -2.76307,3.77912 -2.06035,1.37179 -3.00831,1.81269 -5.75036,2.67454 -1.80582,0.56758 -3.49774,1.03243 -3.75981,1.03301 -0.26207,5e-4 -1.82678,-0.29878 -3.47714,-0.66522 -2.95139,-0.65533 -3.03788,-0.69473 -5.26882,-2.40016 -1.24749,-0.95363 -2.34051,-1.72763 -2.42892,-1.71998 -0.0884,0.008 -0.76667,0.8077 -1.50725,1.77789 -1.15896,1.51831 -1.91895,2.14664 -5.45673,4.51143 -4.2627,2.84935 -8.80271,5.31246 -9.79656,5.31498 -0.31504,7.5e-4 -1.80589,-0.18719 -3.31301,-0.41775 l -2.7402,-0.41919 -3.05775,-2.25252 -3.05775,-2.25253 -2.78834,2.83382 c -1.76584,1.79464 -3.76072,3.50267 -5.44,4.65777 -2.60428,1.79137 -2.70578,1.83495 -5.68211,2.44007 -2.12478,0.43199 -3.58036,0.58644 -4.87051,0.5168 l -1.84005,-0.0993 -2.23353,-2.1255 c -1.22844,-1.16902 -2.33234,-2.11697 -2.4531,-2.10656 -0.12076,0.0104 -1.24234,1.28278 -2.4924,2.82751 -1.92173,2.3747 -2.67982,3.08805 -4.90725,4.61762 -2.45211,1.68386 -2.76252,1.82528 -4.48595,2.04379 -1.67598,0.21249 -2.06877,0.16981 -4.14233,-0.45012 z m 11.0129,-9.94622 3.79082,-3.39484 5.11107,-8.69395 5.11108,-8.69396 0.91418,-4.4582 0.91419,-4.45821 -0.81378,-2.10493 c -0.89664,-2.31926 -1.0268,-2.41022 -3.44901,-2.41022 -1.06578,0 -1.23251,0.11496 -4.30357,2.96732 -2.79376,2.59482 -3.50093,3.42859 -5.63315,6.64167 -1.34108,2.02088 -3.69859,6.112 -5.23891,9.09137 -2.45214,4.74304 -2.9772,5.99156 -4.22004,10.03461 l -1.41944,4.61759 0.52693,1.82214 c 0.28982,1.00217 0.57399,1.96419 0.6315,2.13781 0.0728,0.21978 0.73989,0.31278 2.19594,0.30616 l 2.09136,-0.01 z m 76.57548,-15.96449 3.34217,-2.94677 1.04719,-3.14233 1.04718,-3.14233 -0.41269,-3.48825 c -0.41,-3.46545 -0.42219,-3.50561 -1.86398,-6.14353 -0.79821,-1.46041 -1.53482,-2.6301 -1.63691,-2.59931 -0.29155,0.0879 -11.05232,14.88703 -11.05232,15.20008 0,0.15384 0.56821,0.83937 1.26269,1.52341 0.69448,0.68404 1.26211,1.3048 1.26139,1.37947 -7.6e-4,0.0747 -0.62516,0.53351 -1.38766,1.01964 -0.76249,0.48614 -1.38694,1.00635 -1.38765,1.15602 -7.6e-4,0.14967 0.26591,0.94517 0.5925,1.76777 0.3266,0.8226 0.66396,1.6945 0.74969,1.93757 0.13437,0.38097 0.49671,0.4408 2.62605,0.43364 l 2.47018,-0.008 3.34217,-2.94677 z"
       style="fill:#ececec;fill-opacity:1;stroke-width:0.252538" />
    <path
       transform="scale(0.26458333)"
       id="path890"
       d="m 287.55365,371.3996 -7.12345,-0.22741 -6.85646,-2.38441 -6.85645,-2.38442 -5.63962,-3.91958 c -3.10179,-2.15578 -5.697,-4.11606 -5.76714,-4.35618 -0.0701,-0.24013 -0.31233,-1.74348 -0.53821,-3.34078 -0.22587,-1.59731 -0.4661,-3.13716 -0.53384,-3.4219 -0.0916,-0.38522 0.88063,-1.77297 3.79895,-5.42236 l 3.92211,-4.90464 6.88859,-1.43786 c 5.23398,-1.0925 9.06783,-2.09901 15.96125,-4.19034 l 9.07265,-2.75248 7.78137,-18.02208 c 4.27976,-9.91215 7.75427,-18.04311 7.72114,-18.06881 -0.0331,-0.0257 -0.91255,-0.23482 -1.95427,-0.46471 -2.51205,-0.55438 -12.16538,-3.43342 -12.55278,-3.74378 -0.16757,-0.13425 -1.67361,-2.1499 -3.34676,-4.47921 l -3.04207,-4.23512 0.61451,-5.6167 c 0.33799,-3.08919 0.65078,-5.65051 0.69511,-5.69183 0.0443,-0.0413 3.74589,-2.96098 8.22571,-6.48814 l 8.14513,-6.41303 15.45691,-7.03641 15.45692,-7.03641 10.86941,-1.62877 10.86942,-1.62876 8.9651,0.87622 8.96511,0.87623 7.18221,3.45495 c 4.13319,1.98823 7.34945,3.68743 7.57615,4.00258 0.21666,0.3012 1.93266,2.82417 3.81334,5.60661 l 3.41941,5.05898 0.8232,3.57147 0.82321,3.57146 3.53849,2.99453 c 1.94617,1.64699 3.64879,3.03362 3.78358,3.08141 0.1348,0.0478 0.87821,-0.46361 1.65203,-1.13642 0.77383,-0.67282 1.70056,-1.44714 2.05942,-1.72071 0.52626,-0.40119 3.7321,-0.98752 16.57421,-3.03131 l 15.92174,-2.53392 0.75337,-2.68809 0.75336,-2.6881 4.93282,-1.8855 4.93282,-1.88549 2.1655,-6.6401 2.1655,-6.6401 1.4963,-1.17613 1.4963,-1.17612 9.27643,-1.69246 9.27643,-1.69245 3.0153,1.51153 c 1.77651,0.89054 3.06975,1.6963 3.14783,1.96129 0.0729,0.24738 0.37449,1.81348 0.67021,3.48023 0.29573,1.66676 0.6142,3.1023 0.70772,3.19011 0.0935,0.0878 2.75312,1.59612 5.9102,3.35182 l 5.74016,3.19217 48.55553,-12.26869 48.55556,-12.26869 3.40926,-0.13992 3.40927,-0.13993 3.5701,2.48838 3.57014,2.48839 0.1773,2.73572 0.17731,2.73573 -1.91429,5.22165 c -1.05286,2.8719 -2.31201,6.75581 -2.79812,8.63091 -0.81797,3.15528 -0.85219,3.43278 -0.45904,3.72493 0.23362,0.17362 0.48831,0.31455 0.56591,0.31318 0.0776,-0.001 0.93664,-1.1547 1.90891,-2.56297 0.97227,-1.40825 1.89823,-2.69431 2.05768,-2.8579 0.15948,-0.16359 2.0914,-0.54864 4.29315,-0.85566 l 4.00324,-0.55823 3.20619,1.08265 3.20623,1.08265 3.67544,4.90415 3.67546,4.90415 v 2.45693 2.45694 l -2.71478,1.47775 -2.71479,1.47775 -5.93464,8.70094 -5.93465,8.70094 -5.44212,2.59491 -5.44212,2.59492 -120.32187,27.02365 c -66.17703,14.86302 -120.56418,27.08071 -120.86034,27.15043 -0.29616,0.0697 -2.87921,2.06448 -5.74013,4.4328 l -5.20165,4.30604 -6.25544,2.41283 c -3.44049,1.32705 -9.72152,3.59271 -13.95785,5.03478 l -7.70241,2.62195 -14.0861,2.15232 c -7.74736,1.18378 -14.56589,2.13435 -15.15229,2.11239 -0.5864,-0.022 -4.27174,-0.14227 -8.18963,-0.26734 z m 48.69642,-37.25455 15.75318,-9.40382 7.37075,-9.78908 7.37074,-9.78908 4.94586,-10.78902 4.94587,-10.78902 1.42203,-6.51645 1.42204,-6.51646 -2.62697,-3.95364 -2.62697,-3.95364 -3.67005,-1.40618 c -2.01854,-0.7734 -3.91016,-1.40618 -4.20361,-1.40618 -0.42339,0 -11.86785,2.30986 -14.44935,2.91634 -0.34774,0.0817 -0.50873,0.23484 -0.37881,0.36037 0.12426,0.12006 2.06657,0.98039 4.31624,1.91186 l 4.09031,1.69356 -1.09798,2.17791 c -0.60389,1.19785 -9.57557,18.47671 -19.93708,38.39748 -10.3615,19.92076 -18.8391,36.26629 -18.8391,36.3234 0,0.19287 0.41581,-0.0503 16.1929,-9.46835 z"
       style="fill:#000000;fill-opacity:1;stroke-width:0.252538" />
  </g>
</svg>
